Normalized EMG Linear Envelopes
nRows=252
nColumns=4

endheader
time	 med_gas_r	  soleus_r	 tib_ant_r	
3.42641	  0.015063	  0.011041	  0.011766	
3.45968	  0.013644	  0.011587	  0.010787	
3.49294	  0.012372	  0.012072	  0.009890	
3.52621	  0.011367	  0.012447	  0.009156	
3.55948	  0.010693	  0.012691	  0.008615	
3.59274	  0.010337	  0.012809	  0.008239	
3.62601	  0.010220	  0.012825	  0.007965	
3.65927	  0.010240	  0.012766	  0.007737	
3.69254	  0.010305	  0.012655	  0.007529	
3.72581	  0.010357	  0.012504	  0.007344	
3.75907	  0.010376	  0.012321	  0.007191	
3.79234	  0.010366	  0.012115	  0.007074	
3.8256	  0.010335	  0.011910	  0.006987	
3.85887	  0.010275	  0.011744	  0.006926	
3.89214	  0.010166	  0.011675	  0.006899	
3.9254	  0.010002	  0.011755	  0.006926	
3.95867	  0.009810	  0.012013	  0.007032	
3.99194	  0.009647	  0.012435	  0.007229	
4.0252	  0.009568	  0.012962	  0.007508	
4.05847	  0.009596	  0.013508	  0.007849	
4.09173	  0.009714	  0.013978	  0.008217	
4.125	  0.009878	  0.014295	  0.008565	
4.15827	  0.010046	  0.014417	  0.008834	
4.19153	  0.010191	  0.014342	  0.008964	
4.2248	  0.010318	  0.014102	  0.008929	
4.25806	  0.010448	  0.013758	  0.008757	
4.29133	  0.010606	  0.013373	  0.008524	
4.3246	  0.010799	  0.012999	  0.008325	
4.35786	  0.010999	  0.012676	  0.008219	
4.39113	  0.011160	  0.012424	  0.008207	
4.4244	  0.011234	  0.012251	  0.008238	
4.45766	  0.011197	  0.012152	  0.008248	
4.49093	  0.011053	  0.012102	  0.008207	
4.52419	  0.010835	  0.012066	  0.008140	
4.55746	  0.010588	  0.012009	  0.008100	
4.59073	  0.010354	  0.011914	  0.008124	
4.62399	  0.010164	  0.011790	  0.008208	
4.65726	  0.010031	  0.011675	  0.008299	
4.69052	  0.009951	  0.011611	  0.008336	
4.72379	  0.009911	  0.011631	  0.008284	
4.75706	  0.009901	  0.011731	  0.008157	
4.79032	  0.009922	  0.011884	  0.008001	
4.82359	  0.009981	  0.012049	  0.007856	
4.85685	  0.010083	  0.012205	  0.007726	
4.89012	  0.010220	  0.012352	  0.007566	
4.92339	  0.010369	  0.012494	  0.007301	
4.95665	  0.010501	  0.012623	  0.006842	
4.98992	  0.010595	  0.012710	  0.006100	
5.02319	  0.010645	  0.012731	  0.004995	
5.05645	  0.010655	  0.012686	  0.003467	
5.08972	  0.010630	  0.012604	  0.001496	
5.12298	  0.010578	  0.012518	 -0.000856	
5.15625	  0.010520	  0.012442	 -0.003376	
5.18952	  0.010492	  0.012368	 -0.005605	
5.22278	  0.010550	  0.012273	 -0.006745	
5.25605	  0.010758	  0.012146	 -0.005593	
5.28931	  0.011182	  0.012004	 -0.000526	
5.32258	  0.011896	  0.011900	  0.010459	
5.35585	  0.012990	  0.011935	  0.029569	
5.38911	  0.014578	  0.012247	  0.058766	
5.42238	  0.016771	  0.012995	  0.098998	
5.45565	  0.019633	  0.014326	  0.149359	
5.48891	  0.023131	  0.016347	  0.206731	
5.52218	  0.027117	  0.019101	  0.266373	
5.55544	  0.031365	  0.022570	  0.323385	
5.58871	  0.035660	  0.026693	  0.374324	
5.62198	  0.039894	  0.031399	  0.418054	
5.65524	  0.044139	  0.036649	  0.455430	
5.68851	  0.048647	  0.042459	  0.488196	
5.72177	  0.053759	  0.048867	  0.517982	
5.75504	  0.059702	  0.055845	  0.545954	
5.78831	  0.066379	  0.063202	  0.572945	
5.82157	  0.073267	  0.070559	  0.599490	
5.85484	  0.079528	  0.077416	  0.625508	
5.8881	  0.084312	  0.083267	  0.650053	
5.92137	  0.087099	  0.087712	  0.671625	
5.95464	  0.087890	  0.090582	  0.688958	
5.9879	  0.087186	  0.092061	  0.701616	
6.02117	  0.085752	  0.092699	  0.709894	
6.05444	  0.084300	  0.093202	  0.714285	
6.0877	  0.083204	  0.094034	  0.715055	
6.12097	  0.082404	  0.095104	  0.712168	
6.15423	  0.081558	  0.095823	  0.705413	
6.1875	  0.080360	  0.095519	  0.694629	
6.22077	  0.078829	  0.093895	  0.680068	
6.25403	  0.077384	  0.091217	  0.662781	
6.2873	  0.076650	  0.088130	  0.644567	
6.32056	  0.077168	  0.085327	  0.627263	
6.35383	  0.079151	  0.083292	  0.611766	
6.3871	  0.082394	  0.082207	  0.597579	
6.42036	  0.086351	  0.082004	  0.583247	
6.45363	  0.090340	  0.082508	  0.567482	
6.4869	  0.093819	  0.083604	  0.550413	
6.52016	  0.096559	  0.085324	  0.534276	
6.55343	  0.098625	  0.087783	  0.522959	
6.58669	  0.100204	  0.091030	  0.520439	
6.61996	  0.101475	  0.094968	  0.528940	
6.65323	  0.102619	  0.099437	  0.547833	
6.68649	  0.103849	  0.104318	  0.573673	
6.71976	  0.105290	  0.109462	  0.601136	
6.75302	  0.106759	  0.114470	  0.624495	
6.78629	  0.107704	  0.118585	  0.639369	
6.81956	  0.107496	  0.120963	  0.644221	
6.85282	  0.105904	  0.121177	  0.640874	
6.88609	  0.103350	  0.119518	  0.633492	
6.91935	  0.100672	  0.116807	  0.626357	
6.95262	  0.098610	  0.113873	  0.621802	
6.98589	  0.097439	  0.111161	  0.619734	
7.01915	  0.097041	  0.108730	  0.618890	
7.05242	  0.097233	  0.106515	  0.618415	
7.08569	  0.097992	  0.104526	  0.618202	
7.11895	  0.099372	  0.102819	  0.617983	
7.15222	  0.101241	  0.101347	  0.616534	
7.18548	  0.103179	  0.099933	  0.612087	
7.21875	  0.104666	  0.098454	  0.603568	
7.25202	  0.105423	  0.097110	  0.591420	
7.28528	  0.105628	  0.096480	  0.577330	
7.31855	  0.105808	  0.097244	  0.563388	
7.35181	  0.106498	  0.099712	  0.551545	
7.38508	  0.107848	  0.103521	  0.543550	
7.41835	  0.109410	  0.107664	  0.540743	
7.45161	  0.110185	  0.110832	  0.543313	
7.48488	  0.108974	  0.111855	  0.549581	
7.51815	  0.104944	  0.110102	  0.556332	
7.55141	  0.098152	  0.105715	  0.560418	
7.58468	  0.089648	  0.099536	  0.560560	
7.61794	  0.081017	  0.092693	  0.558071	
7.65121	  0.073641	  0.086115	  0.556201	
7.68448	  0.068204	  0.080313	  0.558789	
7.71774	  0.064735	  0.075550	  0.568960	
7.75101	  0.062999	  0.072106	  0.588087	
7.78427	  0.062812	  0.070331	  0.615016	
7.81754	  0.064049	  0.070413	  0.645794	
7.85081	  0.066435	  0.072130	  0.674409	
7.88407	  0.069426	  0.074825	  0.694654	
7.91734	  0.072322	  0.077639	  0.702456	
7.9506	  0.074524	  0.079783	  0.697311	
7.98387	  0.075728	  0.080680	  0.681909	
8.01714	  0.075935	  0.080022	  0.660410	
8.0504	  0.075339	  0.077836	  0.636808	
8.08367	  0.074237	  0.074561	  0.614218	
8.11694	  0.072991	  0.071003	  0.594678	
8.1502	  0.071986	  0.068076	  0.578862	
8.18347	  0.071536	  0.066425	  0.566059	
8.21673	  0.071761	  0.066167	  0.555020	
8.25	  0.072528	  0.066896	  0.545230	
8.28327	  0.073506	  0.067942	  0.537287	
8.31653	  0.074345	  0.068717	  0.531836	
8.3498	  0.074887	  0.068984	  0.528162	
8.38306	  0.075283	  0.068913	  0.524047	
8.41633	  0.075925	  0.068927	  0.517147	
8.4496	  0.077204	  0.069426	  0.506689	
8.48286	  0.079225	  0.070564	  0.494140	
8.51613	  0.081716	  0.072215	  0.482512	
8.5494	  0.084218	  0.074108	  0.474823	
8.58266	  0.086393	  0.076009	  0.472521	
8.61593	  0.088158	  0.077819	  0.474701	
8.64919	  0.089555	  0.079537	  0.478688	
8.68246	  0.090553	  0.081181	  0.481716	
8.71573	  0.091010	  0.082739	  0.482465	
8.74899	  0.090821	  0.084159	  0.481239	
8.78226	  0.090039	  0.085346	  0.478779	
8.81552	  0.088825	  0.086157	  0.475014	
8.84879	  0.087265	  0.086395	  0.468892	
8.88206	  0.085275	  0.085840	  0.459327	
8.91532	  0.082686	  0.084342	  0.446341	
8.94859	  0.079485	  0.081953	  0.431563	
8.98185	  0.075944	  0.078958	  0.417863	
9.01512	  0.072534	  0.075722	  0.408378	
9.04839	  0.069678	  0.072466	  0.405372	
9.08165	  0.067563	  0.069175	  0.409429	
9.11492	  0.066152	  0.065725	  0.419396	
9.14819	  0.065303	  0.062137	  0.433092	
9.18145	  0.064870	  0.058688	  0.448333	
9.21472	  0.064713	  0.055822	  0.463700	
9.24798	  0.064674	  0.053929	  0.478755	
9.28125	  0.064588	  0.053178	  0.493694	
9.31452	  0.064354	  0.053487	  0.508517	
9.34778	  0.063993	  0.054586	  0.522147	
9.38105	  0.063623	  0.056134	  0.532201	
9.41431	  0.063370	  0.057825	  0.536003	
9.44758	  0.063308	  0.059493	  0.532400	
9.48085	  0.063516	  0.061172	  0.523032	
9.51411	  0.064175	  0.063077	  0.511952	
9.54738	  0.065557	  0.065453	  0.503733	
9.58065	  0.067814	  0.068362	  0.501375	
9.61391	  0.070742	  0.071557	  0.505241	
9.64718	  0.073747	  0.074550	  0.513296	
9.68044	  0.076078	  0.076828	  0.522239	
9.71371	  0.077132	  0.078028	  0.528856	
9.74698	  0.076626	  0.077989	  0.531115	
9.78024	  0.074576	  0.076711	  0.528606	
9.81351	  0.071210	  0.074322	  0.522289	
9.84677	  0.066905	  0.071058	  0.513787	
9.88004	  0.062159	  0.067238	  0.504638	
9.91331	  0.057551	  0.063218	  0.495808	
9.94657	  0.053656	  0.059372	  0.487518	
9.97984	  0.050908	  0.056049	  0.479383	
10.0131	  0.049456	  0.053508	  0.470808	
10.0464	  0.049152	  0.051876	  0.461522	
10.0796	  0.049692	  0.051166	  0.451902	
10.1129	  0.050802	  0.051343	  0.442841	
10.1462	  0.052268	  0.052291	  0.435225	
10.1794	  0.053814	  0.053705	  0.429484	
10.2127	  0.055006	  0.055010	  0.425545	
10.246	  0.055362	  0.055492	  0.423070	
10.2792	  0.054633	  0.054629	  0.421601	
10.3125	  0.052999	  0.052380	  0.420516	
10.3458	  0.050987	  0.049213	  0.419093	
10.379	  0.049172	  0.045840	  0.417012	
10.4123	  0.047910	  0.042893	  0.414996	
10.4456	  0.047276	  0.040748	  0.414752	
10.4788	  0.047188	  0.039553	  0.417843	
10.5121	  0.047518	  0.039312	  0.424278	
10.5454	  0.048137	  0.039922	  0.432157	
10.5786	  0.048895	  0.041135	  0.438757	
10.6119	  0.049621	  0.042557	  0.442056	
10.6452	  0.050136	  0.043712	  0.441476	
10.6784	  0.050255	  0.044171	  0.437623	
10.7117	  0.049808	  0.043702	  0.431634	
10.745	  0.048703	  0.042355	  0.424485	
10.7782	  0.046997	  0.040419	  0.416245	
10.8115	  0.044907	  0.038282	  0.405685	
10.8448	  0.042730	  0.036249	  0.390950	
10.878	  0.040713	  0.034463	  0.371179	
10.9113	  0.038955	  0.032944	  0.347727	
10.9446	  0.037384	  0.031694	  0.323689	
10.9778	  0.035820	  0.030733	  0.302045	
11.0111	  0.034091	  0.030057	  0.284032	
11.0444	  0.032156	  0.029563	  0.268962	
11.0776	  0.030137	  0.029030	  0.255207	
11.1109	  0.028236	  0.028199	  0.241329	
11.1442	  0.026601	  0.026908	  0.226647	
11.1774	  0.025242	  0.025174	  0.211213	
11.2107	  0.024068	  0.023176	  0.195415	
11.244	  0.022980	  0.021146	  0.179539	
11.2772	  0.021933	  0.019278	  0.163546	
11.3105	  0.020922	  0.017678	  0.147226	
11.3437	  0.019913	  0.016369	  0.130545	
11.377	  0.018823	  0.015310	  0.113830	
11.4103	  0.017579	  0.014430	  0.097620	
11.4435	  0.016195	  0.013672	  0.082304	
11.4768	  0.014792	  0.013021	  0.067941	
11.5101	  0.013536	  0.012488	  0.054425	
11.5433	  0.012545	  0.012076	  0.041832	
11.5766	  0.011838	  0.011752	  0.030550	
11.6099	  0.011355	  0.011455	  0.021087	
11.6431	  0.011014	  0.011131	  0.013746	
11.6764	  0.010752	  0.010761	  0.008471	
11.7097	  0.010529	  0.010360	  0.004927	
11.7429	  0.010327	  0.009954	  0.002681	
11.7762	  0.010134	  0.009560	  0.001345	
